<?xml version="1.0" standalone="no"?>
<!DOCTYPE svg PUBLIC "-//W3C//DTD SVG 20010904//EN"
 "http://www.w3.org/TR/2001/REC-SVG-20010904/DTD/svg10.dtd">
<svg version="1.0" xmlns="http://www.w3.org/2000/svg"
 width="300.000000pt" height="300.000000pt" viewBox="0 0 300.000000 300.000000"
 preserveAspectRatio="xMidYMid meet">
<metadata>
Created by potrace 1.11, written by Peter Selinger 2001-2013
</metadata>
<g transform="translate(0.000000,300.000000) scale(0.100000,-0.100000)"
fill="#000000" stroke="none">
<path d="M1342 1813 c-84 -98 -167 -195 -185 -215 -17 -21 -66 -78 -107 -127
-41 -49 -80 -90 -86 -90 -9 -1 -242 259 -315 351 -15 20 -21 15 -149 -133
-149 -172 -213 -246 -315 -363 -39 -45 -96 -111 -128 -148 l-59 -68 36 0 c20
0 36 3 36 8 0 4 17 25 38 47 38 42 52 58 313 360 86 99 168 194 184 211 l28
32 74 -87 c42 -47 97 -111 123 -141 107 -123 101 -112 84 -131 -17 -19 -11
-25 -154 141 -30 36 -72 83 -92 105 l-37 40 -23 -25 c-13 -14 -63 -72 -113
-130 -49 -58 -92 -107 -95 -110 -22 -21 -270 -311 -270 -315 0 -3 32 -5 71 -5
79 0 66 -8 152 94 23 27 47 54 52 60 6 6 57 65 115 131 57 66 106 121 110 123
5 2 75 -77 178 -200 13 -16 6 -27 -68 -113 l-82 -95 41 0 c43 0 41 -3 301 300
30 35 73 85 95 110 22 25 65 75 95 110 30 35 60 68 65 74 6 6 51 58 100 116
144 169 141 165 157 149 7 -8 56 -63 108 -124 52 -60 107 -123 121 -140 15
-16 93 -106 174 -200 82 -93 174 -199 205 -235 32 -36 75 -86 96 -112 35 -42
43 -47 83 -47 l44 -1 -19 22 c-10 12 -33 38 -51 58 -74 83 -93 105 -93 113 0
4 41 55 92 113 l92 105 40 -43 c23 -24 66 -73 96 -109 30 -35 57 -66 60 -69 3
-3 41 -47 85 -98 l79 -92 74 0 c83 0 81 -4 21 65 -15 16 -120 138 -234 270
-115 132 -213 241 -219 242 -6 1 -51 -45 -101 -103 -172 -201 -168 -198 -182
-175 -13 20 -2 34 206 270 31 35 61 70 66 78 9 12 77 -60 260 -275 34 -40 160
-185 244 -281 31 -35 60 -69 64 -77 4 -8 24 -14 43 -14 l36 0 -59 67 c-32 37
-62 73 -68 79 -25 27 -339 388 -460 528 l-50 58 -25 -30 c-14 -16 -79 -92
-145 -168 -66 -76 -128 -149 -138 -160 l-18 -22 -43 47 c-23 25 -128 145 -233
266 -105 121 -208 239 -229 263 l-39 42 -153 -177z"/>
<path d="M1459 1748 c-24 -29 -46 -55 -50 -58 -3 -3 -64 -72 -134 -155 -71
-82 -132 -152 -135 -155 -3 -3 -48 -54 -100 -115 -52 -60 -97 -112 -100 -115
-3 -3 -29 -33 -58 -67 l-53 -63 99 0 100 0 44 51 c23 28 59 69 78 92 19 22 43
49 53 61 10 12 82 94 160 184 l141 163 29 -33 c26 -30 91 -105 140 -162 10
-11 31 -35 45 -51 15 -17 80 -92 146 -168 l118 -137 101 0 101 0 -26 28 c-14
15 -36 40 -49 56 -13 16 -28 34 -34 40 -23 25 -214 246 -270 311 -33 39 -64
75 -70 81 -35 38 -80 90 -149 172 -43 50 -80 92 -81 92 -2 0 -23 -24 -46 -52z"/>
<path d="M1410 1240 c0 -37 1 -38 33 -36 29 2 32 6 35 37 3 34 2 35 -33 36
-34 1 -35 0 -35 -37z"/>
<path d="M1530 1240 c0 -36 1 -37 33 -36 29 1 32 4 35 37 3 34 2 35 -33 36
-34 1 -35 0 -35 -37z"/>
<path d="M1412 1133 c3 -38 6 -40 58 -34 6 1 10 17 10 36 0 33 -2 35 -36 35
-35 0 -35 -1 -32 -37z"/>
<path d="M1532 1133 c2 -29 7 -37 25 -38 37 -3 47 11 44 58 -1 13 -10 17 -37
17 -35 0 -35 -1 -32 -37z"/>
</g>
</svg>
